0
SECTION
2
HEADER
9
$INSUNITS
70
4
9
$ACADVER
1
AC1014
9
$HANDSEED
5
FFFF
0
ENDSEC
0
SECTION
2
TABLES
0
TABLE
2
VPORT
5
8
100
AcDbSymbolTable
0
ENDTAB
0
TABLE
2
LTYPE
5
5
100
AcDbSymbolTable
0
LTYPE
5
14
100
AcDbSymbolTableRecord
100
AcDbLinetypeTableRecord
2
BYBLOCK
70
0
0
LTYPE
5
15
100
AcDbSymbolTableRecord
100
AcDbLinetypeTableRecord
2
BYLAYER
70
0
0
ENDTAB
0
TABLE
2
LAYER
5
2
100
AcDbSymbolTable
70
2
0
LAYER
5
50
100
AcDbSymbolTableRecord
100
AcDbLayerTableRecord
2
0
70
0
6
CONTINUOUS
0
ENDTAB
0
TABLE
2
STYLE
5
3
100
AcDbSymbolTable
70
1
0
STYLE
5
11
100
AcDbSymbolTableRecord
100
AcDbTextStyleTableRecord
2
STANDARD
70
0
0
ENDTAB
0
TABLE
2
VIEW
5
6
100
AcDbSymbolTable
70
0
0
ENDTAB
0
TABLE
2
UCS
5
7
100
AcDbSymbolTable
70
0
0
ENDTAB
0
TABLE
2
APPID
5
9
100
AcDbSymbolTable
70
2
0
APPID
5
12
100
AcDbSymbolTableRecord
100
AcDbRegAppTableRecord
2
ACAD
70
0
0
ENDTAB
0
TABLE
2
DIMSTYLE
5
A
100
AcDbSymbolTable
70
1
0
ENDTAB
0
TABLE
2
BLOCK_RECORD
5
1
100
AcDbSymbolTable
70
1
0
BLOCK_RECORD
5
1F
100
AcDbSymbolTableRecord
100
AcDbBlockTableRecord
2
*MODEL_SPACE
0
BLOCK_RECORD
5
1B
100
AcDbSymbolTableRecord
100
AcDbBlockTableRecord
2
*PAPER_SPACE
0
ENDTAB
0
ENDSEC
0
SECTION
2
BLOCKS
0
BLOCK
5
20
100
AcDbEntity
100
AcDbBlockBegin
2
*MODEL_SPACE
0
ENDBLK
5
21
100
AcDbEntity
100
AcDbBlockEnd
0
BLOCK
5
1C
100
AcDbEntity
100
AcDbBlockBegin
2
*PAPER_SPACE
0
ENDBLK
5
1D
100
AcDbEntity
100
AcDbBlockEnd
0
ENDSEC
0
SECTION
2
ENTITIES
0
LWPOLYLINE
5
100
100
AcDbEntity
8
0
100
AcDbPolyline
90
8
70
1
43
0.0
10
39.174999999999997
20
9.8000000000000007
42
-0.41421356237309243
10
41.174999999999997
20
7.7999999999999936
10
41.17499999999999
20
-126.57500000000002
42
-0.41421356237309176
10
39.174999999999983
20
-128.57500000000002
10
-39.17499999999999
20
-128.57500000000002
42
-0.41421356237309631
10
-41.174999999999997
20
-126.57500000000002
10
-41.17499999999999
20
7.7999999999999936
42
-0.41421356237309342
10
-39.174999999999997
20
9.7999999999999847
0
LWPOLYLINE
5
101
100
AcDbEntity
8
0
100
AcDbPolyline
90
24
70
1
43
0.0
10
-21.575000000000006
20
-70.125
42
-0.41421356237307422
10
-21.325000000000003
20
-69.875
10
-21.074999999999999
20
-69.875
42
0.41421356237309503
10
-20.575000000000003
20
-69.375
10
-20.575000000000003
20
-63.625
42
0.41421356237309503
10
-21.074999999999999
20
-63.125
10
-21.325000000000003
20
-63.125
42
-0.41421356237310542
10
-21.575000000000003
20
-62.875
10
-21.574999999999996
20
-46.375000000000014
42
-0.41421356237310542
10
-21.325000000000003
20
-46.125000000000007
10
-21.074999999999999
20
-46.125
42
0.41421356237309503
10
-20.575000000000003
20
-45.625
10
-20.575000000000003
20
-39.875000000000007
42
0.41421356237309503
10
-21.074999999999999
20
-39.375000000000007
10
-21.325000000000003
20
-39.375000000000007
42
-0.41421356237310542
10
-21.575000000000003
20
-39.125000000000007
10
-21.575000000000003
20
-38.600000000000001
42
0.41421356237309503
10
-22.074999999999999
20
-38.100000000000009
10
-35.07500000000001
20
-38.100000000000009
42
0.41421356237309503
10
-35.575000000000003
20
-38.600000000000001
10
-35.575000000000003
20
-70.650000000000006
42
0.41421356237309503
10
-35.07500000000001
20
-71.150000000000006
10
-22.074999999999999
20
-71.150000000000006
42
0.41421356237309503
10
-21.575000000000003
20
-70.650000000000006
0
LWPOLYLINE
5
102
100
AcDbEntity
8
0
100
AcDbPolyline
90
24
70
1
43
0.0
10
-21.575000000000003
20
-32.025000000000006
42
-0.41421356237310542
10
-21.325000000000003
20
-31.775000000000006
10
-21.074999999999999
20
-31.775000000000006
42
0.41421356237309503
10
-20.575000000000003
20
-31.275000000000009
10
-20.575000000000003
20
-25.525000000000002
42
0.41421356237309503
10
-21.074999999999999
20
-25.025000000000006
10
-21.325000000000003
20
-25.024999999999999
42
-0.41421356237310542
10
-21.575000000000003
20
-24.774999999999999
10
-21.575000000000003
20
-8.2750000000000021
42
-0.41421356237309631
10
-21.325000000000003
20
-8.0250000000000021
10
-21.074999999999999
20
-8.0250000000000021
42
0.41421356237309503
10
-20.575000000000003
20
-7.5250000000000021
10
-20.575000000000006
20
-1.6250000000000009
42
0.4142135623730947
10
-21.075000000000003
20
-1.1250000000000016
10
-21.325000000000003
20
-1.1250000000000022
42
-0.41421356237309664
10
-21.575000000000003
20
-0.87500000000000155
10
-21.575000000000003
20
-0.50000000000000011
42
0.41421356237309509
10
-22.074999999999999
20
0
10
-35.07500000000001
20
0
42
0.41421356237309398
10
-35.575000000000003
20
-0.49999999999999822
10
-35.575000000000003
20
-32.550000000000011
42
0.41421356237309503
10
-35.07500000000001
20
-33.050000000000004
10
-22.074999999999999
20
-33.050000000000004
42
0.41421356237309503
10
-21.575000000000003
20
-32.550000000000011
0
LWPOLYLINE
5
103
100
AcDbEntity
8
0
100
AcDbPolyline
90
24
70
1
43
0.0
10
3.400000000000003
20
-14.000000000000002
42
-0.41421356237309959
10
3.6500000000000044
20
-14.249999999999998
10
3.6500000000000039
20
-14.500000000000002
42
0.41421356237309631
10
4.1500000000000039
20
-15.000000000000004
10
10.050000000000001
20
-15.000000000000004
42
0.41421356237309503
10
10.550000000000001
20
-14.500000000000004
10
10.550000000000001
20
-14.25
42
-0.41421356237309503
10
10.800000000000001
20
-14.000000000000002
10
27.300000000000004
20
-14
42
-0.41421356237309764
10
27.550000000000004
20
-14.25
10
27.550000000000004
20
-14.500000000000002
42
0.41421356237309503
10
28.050000000000001
20
-15.000000000000002
10
33.950000000000003
20
-15.000000000000002
42
0.41421356237309503
10
34.450000000000003
20
-14.500000000000002
10
34.45000000000001
20
-14.25
42
-0.41421356237309764
10
34.700000000000003
20
-14.000000000000002
10
35.07500000000001
20
-14.000000000000002
42
0.41421356237309503
10
35.575000000000003
20
-13.5
10
35.575000000000003
20
-0.50000000000000056
42
0.41421356237309248
10
35.07500000000001
20
0
10
3.0249999999999999
20
0
42
0.41421356237309531
10
2.5249999999999995
20
-0.50000000000000044
10
2.5249999999999999
20
-13.5
42
0.41421356237309503
10
3.0249999999999999
20
-14.000000000000002
0
LWPOLYLINE
5
104
100
AcDbEntity
8
0
100
AcDbPolyline
90
8
70
1
43
0.0
10
-22.074999999999999
20
-104.77500000000001
10
-35.07500000000001
20
-104.77500000000001
42
0.41421356237309503
10
-35.575000000000003
20
-105.27500000000002
10
-35.575000000000003
20
-118.27500000000001
42
0.41421356237309503
10
-35.07500000000001
20
-118.77500000000001
10
-22.074999999999999
20
-118.77500000000001
42
0.41421356237309503
10
-21.575000000000003
20
-118.27500000000001
10
-21.575000000000003
20
-105.27500000000002
42
0.41421356237309503
0
LWPOLYLINE
5
105
100
AcDbEntity
8
0
100
AcDbPolyline
90
8
70
1
43
0.0
10
-2.5249999999999995
20
-118.27500000000001
10
-2.5249999999999995
20
-105.27500000000002
42
0.41421356237309503
10
-3.0249999999999999
20
-104.77500000000001
10
-16.025000000000002
20
-104.77500000000001
42
0.41421356237309503
10
-16.525000000000002
20
-105.27500000000002
10
-16.525000000000006
20
-118.27500000000001
42
0.41421356237309503
10
-16.025000000000006
20
-118.77500000000001
10
-3.0249999999999986
20
-118.77500000000001
42
0.41421356237309503
0
LWPOLYLINE
5
106
100
AcDbEntity
8
0
100
AcDbPolyline
90
8
70
1
43
0.0
10
3.0249999999999999
20
-118.77500000000001
10
16.025000000000002
20
-118.77500000000001
42
0.41421356237309503
10
16.525000000000002
20
-118.27500000000001
10
16.525000000000006
20
-105.27500000000002
42
0.41421356237309503
10
16.025000000000006
20
-104.77500000000001
10
3.0249999999999986
20
-104.77500000000001
42
0.41421356237309503
10
2.5249999999999995
20
-105.27500000000002
10
2.5250000000000004
20
-118.27500000000001
42
0.4142135623730947
0
LWPOLYLINE
5
107
100
AcDbEntity
8
0
100
AcDbPolyline
90
8
70
1
43
0.0
10
21.575000000000003
20
-105.27500000000002
10
21.575000000000003
20
-118.27500000000001
42
0.41421356237309503
10
22.074999999999999
20
-118.77500000000001
10
35.07500000000001
20
-118.77500000000001
42
0.41421356237309503
10
35.575000000000003
20
-118.27500000000001
10
35.575000000000003
20
-105.27500000000002
42
0.41421356237309503
10
35.07500000000001
20
-104.77500000000001
10
22.074999999999999
20
-104.77500000000001
42
0.41421356237309503
0
LWPOLYLINE
5
108
100
AcDbEntity
8
0
100
AcDbPolyline
90
8
70
1
43
0.0
10
-35.575000000000003
20
-76.700000000000017
10
-35.575000000000003
20
-89.700000000000003
42
0.41421356237309503
10
-35.07500000000001
20
-90.200000000000017
10
-22.074999999999999
20
-90.200000000000017
42
0.41421356237309503
10
-21.575000000000003
20
-89.700000000000003
10
-21.575000000000003
20
-76.700000000000003
42
0.41421356237309503
10
-22.074999999999999
20
-76.200000000000017
10
-35.07500000000001
20
-76.200000000000017
42
0.41421356237309503
0
CIRCLE
5
109
100
AcDbEntity
8
0
100
AcDbCircle
10
-19.050000000000011
20
6.7499999999999938
30
0
40
1.5500000000000003
210
0
220
-0
230
1
0
LWPOLYLINE
5
110
100
AcDbEntity
8
0
100
AcDbPolyline
90
8
70
1
43
0.0
10
-16.525000000000002
20
-76.700000000000017
10
-16.525000000000002
20
-89.700000000000003
42
0.41421356237309503
10
-16.025000000000006
20
-90.200000000000017
10
-3.0249999999999986
20
-90.200000000000017
42
0.41421356237309503
10
-2.5249999999999995
20
-89.700000000000003
10
-2.5249999999999999
20
-76.700000000000003
42
0.41421356237309503
10
-3.0249999999999999
20
-76.200000000000017
10
-16.025000000000002
20
-76.200000000000017
42
0.41421356237309503
0
CIRCLE
5
111
100
AcDbEntity
8
0
100
AcDbCircle
10
-19.049999999999866
20
-125.52500000000002
30
0
40
1.5500000000000025
210
0
220
-0
230
1
0
LWPOLYLINE
5
112
100
AcDbEntity
8
0
100
AcDbPolyline
90
8
70
1
43
0.0
10
21.575000000000003
20
-38.600000000000001
10
21.575000000000003
20
-51.600000000000009
42
0.41421356237309503
10
22.074999999999999
20
-52.100000000000009
10
35.07500000000001
20
-52.100000000000001
42
0.41421356237309503
10
35.575000000000003
20
-51.600000000000001
10
35.575000000000003
20
-38.600000000000001
42
0.41421356237309503
10
35.07500000000001
20
-38.100000000000009
10
22.074999999999999
20
-38.100000000000009
42
0.41421356237309503
0
LWPOLYLINE
5
113
100
AcDbEntity
8
0
100
AcDbPolyline
90
8
70
1
43
0.0
10
-16.525000000000002
20
-19.550000000000001
10
-16.525000000000002
20
-32.550000000000011
42
0.41421356237309503
10
-16.025000000000006
20
-33.050000000000004
10
-3.0249999999999986
20
-33.050000000000004
42
0.41421356237309503
10
-2.5249999999999995
20
-32.550000000000011
10
-2.5249999999999999
20
-19.550000000000004
42
0.41421356237309503
10
-3.0249999999999999
20
-19.050000000000004
10
-16.025000000000002
20
-19.050000000000001
42
0.41421356237309503
0
LWPOLYLINE
5
114
100
AcDbEntity
8
0
100
AcDbPolyline
90
8
70
1
43
0.0
10
2.5249999999999995
20
-19.550000000000001
10
2.5249999999999995
20
-32.550000000000011
42
0.41421356237309503
10
3.0249999999999999
20
-33.050000000000004
10
16.025000000000002
20
-33.050000000000004
42
0.41421356237309503
10
16.525000000000002
20
-32.550000000000011
10
16.525000000000006
20
-19.550000000000004
42
0.41421356237309503
10
16.025000000000006
20
-19.050000000000004
10
3.0249999999999986
20
-19.050000000000001
42
0.41421356237309503
0
LWPOLYLINE
5
115
100
AcDbEntity
8
0
100
AcDbPolyline
90
7
70
1
43
0.0
10
21.575000000000003
20
-19.050000000000004
10
21.575000000000003
20
-32.550000000000011
42
0.41421356237309503
10
22.074999999999999
20
-33.050000000000004
10
35.07500000000001
20
-33.050000000000004
42
0.41421356237309503
10
35.575000000000003
20
-32.550000000000011
10
35.575000000000003
20
-19.550000000000004
42
0.41421356237309503
10
35.07500000000001
20
-19.050000000000004
0
LWPOLYLINE
5
116
100
AcDbEntity
8
0
100
AcDbPolyline
90
8
70
1
43
0.0
10
-16.525000000000002
20
-0.50000000000000044
10
-16.525000000000002
20
-13.5
42
0.41421356237309503
10
-16.025000000000006
20
-14.000000000000002
10
-3.0249999999999986
20
-14.000000000000002
42
0.41421356237309503
10
-2.5249999999999995
20
-13.5
10
-2.5249999999999999
20
-0.50000000000000056
42
0.41421356237309509
10
-3.0249999999999999
20
0
10
-16.025000000000002
20
-1.3877787807814457e-16
42
0.41421356237309531
0
CIRCLE
5
117
100
AcDbEntity
8
0
100
AcDbCircle
10
19.04999999999999
20
6.7499999999999964
30
0
40
1.5500000000000003
210
0
220
-0
230
1
0
CIRCLE
5
118
100
AcDbEntity
8
0
100
AcDbCircle
10
19.050000000000104
20
-125.52500000000002
30
0
40
1.5250000000000008
210
0
220
-0
230
1
0
LWPOLYLINE
5
119
100
AcDbEntity
8
0
100
AcDbPolyline
90
8
70
1
43
0.0
10
2.5249999999999995
20
-76.700000000000017
10
2.5249999999999995
20
-89.700000000000003
42
0.41421356237309503
10
3.0249999999999999
20
-90.200000000000017
10
16.025000000000002
20
-90.200000000000017
42
0.41421356237309503
10
16.525000000000002
20
-89.700000000000003
10
16.525000000000006
20
-76.700000000000003
42
0.41421356237309503
10
16.025000000000006
20
-76.200000000000017
10
3.0249999999999986
20
-76.200000000000017
42
0.41421356237309503
0
LWPOLYLINE
5
120
100
AcDbEntity
8
0
100
AcDbPolyline
90
8
70
1
43
0.0
10
35.07500000000001
20
-94.487500000000026
10
-35.075000000000003
20
-94.487500000000026
42
0.41421356237309503
10
-35.575000000000003
20
-94.987500000000026
10
-35.575000000000003
20
-99.987500000000011
42
0.41421356237309503
10
-35.07500000000001
20
-100.48750000000001
10
35.07500000000001
20
-100.48750000000001
42
0.41421356237309503
10
35.575000000000003
20
-99.987500000000011
10
35.57500000000001
20
-94.987500000000026
42
0.41421356237309503
0
LWPOLYLINE
5
121
100
AcDbEntity
8
0
100
AcDbPolyline
90
8
70
1
43
0.0
10
21.575000000000003
20
-76.700000000000017
10
21.575000000000003
20
-89.700000000000003
42
0.41421356237309503
10
22.074999999999999
20
-90.200000000000017
10
35.07500000000001
20
-90.200000000000017
42
0.41421356237309503
10
35.575000000000003
20
-89.700000000000003
10
35.575000000000003
20
-76.700000000000003
42
0.41421356237309503
10
35.07500000000001
20
-76.200000000000017
10
22.074999999999999
20
-76.200000000000017
42
0.41421356237309503
0
LWPOLYLINE
5
122
100
AcDbEntity
8
0
100
AcDbPolyline
90
8
70
1
43
0.0
10
-16.525000000000002
20
-57.650000000000006
10
-16.525000000000002
20
-70.650000000000006
42
0.41421356237309503
10
-16.025000000000006
20
-71.150000000000006
10
-3.0249999999999986
20
-71.150000000000006
42
0.41421356237309503
10
-2.5249999999999995
20
-70.650000000000006
10
-2.5249999999999999
20
-57.650000000000006
42
0.41421356237309503
10
-3.0249999999999999
20
-57.150000000000006
10
-16.025000000000002
20
-57.150000000000006
42
0.41421356237309503
0
LWPOLYLINE
5
123
100
AcDbEntity
8
0
100
AcDbPolyline
90
8
70
1
43
0.0
10
2.5249999999999995
20
-57.650000000000006
10
2.5249999999999995
20
-70.650000000000006
42
0.41421356237309503
10
3.0249999999999999
20
-71.150000000000006
10
16.025000000000002
20
-71.150000000000006
42
0.41421356237309503
10
16.525000000000002
20
-70.650000000000006
10
16.525000000000006
20
-57.650000000000006
42
0.41421356237309503
10
16.025000000000006
20
-57.150000000000006
10
3.0249999999999986
20
-57.150000000000006
42
0.41421356237309503
0
LWPOLYLINE
5
124
100
AcDbEntity
8
0
100
AcDbPolyline
90
8
70
1
43
0.0
10
21.575000000000003
20
-57.650000000000006
10
21.575000000000003
20
-70.650000000000006
42
0.41421356237309503
10
22.074999999999999
20
-71.150000000000006
10
35.07500000000001
20
-71.150000000000006
42
0.41421356237309503
10
35.575000000000003
20
-70.650000000000006
10
35.575000000000003
20
-57.650000000000006
42
0.41421356237309503
10
35.07500000000001
20
-57.150000000000006
10
22.074999999999999
20
-57.150000000000006
42
0.41421356237309503
0
LWPOLYLINE
5
125
100
AcDbEntity
8
0
100
AcDbPolyline
90
8
70
1
43
0.0
10
-16.525000000000002
20
-38.600000000000001
10
-16.525000000000002
20
-51.600000000000009
42
0.41421356237309503
10
-16.025000000000006
20
-52.100000000000009
10
-3.0249999999999986
20
-52.100000000000001
42
0.41421356237309503
10
-2.5249999999999995
20
-51.600000000000001
10
-2.5249999999999999
20
-38.600000000000001
42
0.41421356237309503
10
-3.0249999999999999
20
-38.100000000000009
10
-16.025000000000002
20
-38.100000000000009
42
0.41421356237309503
0
LWPOLYLINE
5
126
100
AcDbEntity
8
0
100
AcDbPolyline
90
8
70
1
43
0.0
10
2.5249999999999995
20
-38.600000000000001
10
2.5249999999999995
20
-51.600000000000009
42
0.41421356237309503
10
3.0249999999999999
20
-52.100000000000009
10
16.025000000000002
20
-52.100000000000001
42
0.41421356237309503
10
16.525000000000002
20
-51.600000000000001
10
16.525000000000006
20
-38.600000000000001
42
0.41421356237309503
10
16.025000000000006
20
-38.100000000000009
10
3.0249999999999986
20
-38.100000000000009
42
0.41421356237309503
0
ENDSEC
0
SECTION
2
OBJECTS
0
DICTIONARY
5
C
100
AcDbDictionary
3
ACAD_GROUP
350
D
3
ACAD_MLINESTYLE
350
17
0
DICTIONARY
5
D
100
AcDbDictionary
0
DICTIONARY
5
1A
330
C
100
AcDbDictionary
0
DICTIONARY
5
17
100
AcDbDictionary
0
ENDSEC
0
EOF
